<?xml version="1.0" encoding="UTF-8" standalone="no"?><!DOCTYPE svg PUBLIC "-//W3C//DTD SVG 1.1//EN" "http://www.w3.org/Graphics/SVG/1.1/DTD/svg11.dtd"><svg width="100%" height="100%" viewBox="0 0 24 24" version="1.1" xmlns="http://www.w3.org/2000/svg" xmlns:xlink="http://www.w3.org/1999/xlink" xml:space="preserve" xmlns:serif="http://www.serif.com/" style="fill-rule:evenodd;clip-rule:evenodd;stroke-linejoin:round;stroke-miterlimit:2;"><rect id="rename" x="0" y="0" width="24" height="24" style="fill:none;"/><path d="M10,4l-2,0l0,2l-3,0c-1.657,0 -3,1.343 -3,3l0,6c0,1.657 1.343,3 3,3l3,0l0,2l2,0l0,-16Zm-2,4l0,8l-3,0c-0.552,0 -1,-0.448 -1,-1l0,-6c0,-0.552 0.448,-1 1,-1l3,0Z"/><path d="M19,16l-7,0l0,2l7,0c1.657,0 3,-1.343 3,-3l0,-6c0,-1.657 -1.343,-3 -3,-3l-7,0l0,2l7,0c0.552,0 1,0.448 1,1l0,6c0,0.552 -0.448,1 -1,1Z" style="fill-rule:nonzero;"/></svg>